<?xml version="1.0" encoding="utf-8"?>
<!-- Generator: Adobe Illustrator 24.0.2, SVG Export Plug-In . SVG Version: 6.00 Build 0)  -->
<svg version="1.1" id="Layer_1" xmlns="http://www.w3.org/2000/svg" xmlns:xlink="http://www.w3.org/1999/xlink" x="0px" y="0px"
	 viewBox="0 0 1440 1400" style="enable-background:new 0 0 1440 1400;" xml:space="preserve">
<style type="text/css">
	.st0{fill:#D47654;}
</style>
<path class="st0" d="M1078.9,297.7H975.2c-10.1,0-16.1,6-16.1,16.1v320.1H830.3V313.8c0-10.1-6-16.1-16.1-16.1H361
	c-12.1,0-17.1,6-17.1,16.1v773.1c0,10.1,5,16.1,17.1,16.1h453.2c10.1,0,16.1-6,16.1-16.1V766.8h128.9v320.1c0,10.1,6,16.1,16.1,16.1
	h103.7c12.1,0,17.1-6,17.1-16.1V313.8C1096,303.7,1091,297.7,1078.9,297.7z M749.6,579c0,8.1-4.1,13-13,13h-84.7
	c-8.1,0-13-4.9-13-13v-63.5c0-21.2-10.6-32.6-32.6-32.6h-39.1c-20.4,0-32.6,11.4-32.6,32.6v112.4l193.8,63.5
	c13.8,5.7,21.2,14.7,21.2,30.1v188.1c0,76.5-40.7,117.2-117.2,117.2h-91.2c-75.7,0-117.2-40.7-117.2-117.2V824c0-9,4.9-13,13-13
	h84.7c9,0,13,4.1,13,13v62.7c0,22,12.2,32.6,32.6,32.6h39.1c21.2,0,32.6-10.6,32.6-32.6V778.4l-193-63.5c-14.7-4.9-22-14.7-22-30.1
	V492.7c0-76.5,41.5-117.2,117.2-117.2h91.2c76.5,0,117.2,40.7,117.2,117.2V579z"/>
</svg>
